<svg width="130" height="41" viewBox="0 0 130 41" fill="none" xmlns="http://www.w3.org/2000/svg">
<path d="M14.3 38.1C14.3 39.09 13.49 40.07 11.98 40.07C10.58 40.07 9.59 39.29 9.57 38.14H10.54C10.6 38.72 11.01 39.3 11.98 39.3C12.86 39.3 13.38 38.8 13.38 38.14C13.38 36.26 9.61 37.46 9.61 34.87C9.61 33.72 10.54 32.94 11.92 32.94C13.25 32.94 14.12 33.67 14.23 34.73H13.23C13.17 34.26 12.73 33.73 11.88 33.72C11.13 33.7 10.54 34.09 10.54 34.84C10.54 36.64 14.3 35.52 14.3 38.1ZM17.9691 35.2C17.0791 35.2 16.3391 35.79 16.2391 36.86H19.6991C19.7091 35.79 18.9091 35.2 17.9691 35.2ZM20.5291 38.31C20.2491 39.31 19.3691 40.09 18.0091 40.09C16.4491 40.09 15.2991 38.99 15.2991 37.25C15.2991 35.52 16.4091 34.43 18.0091 34.43C19.5991 34.43 20.6391 35.55 20.6391 37.05C20.6391 37.25 20.6291 37.41 20.6091 37.6H16.2291C16.2991 38.71 17.0791 39.32 18.0091 39.32C18.8291 39.32 19.3491 38.9 19.5491 38.31H20.5291ZM21.5003 37.25C21.5003 35.53 22.6103 34.43 24.1703 34.43C25.5303 34.43 26.4203 35.13 26.7003 36.28H25.7203C25.5303 35.62 24.9803 35.2 24.1703 35.2C23.1703 35.2 22.4303 35.91 22.4303 37.25C22.4303 38.61 23.1703 39.32 24.1703 39.32C24.9803 39.32 25.5203 38.93 25.7203 38.24H26.7003C26.4203 39.33 25.5303 40.09 24.1703 40.09C22.6103 40.09 21.5003 38.99 21.5003 37.25ZM32.7745 34.52V40H31.8645V39.19C31.5145 39.76 30.8445 40.08 30.1145 40.08C28.8545 40.08 27.8645 39.3 27.8645 37.73V34.52H28.7645V37.61C28.7645 38.72 29.3745 39.29 30.2945 39.29C31.2345 39.29 31.8645 38.71 31.8645 37.53V34.52H32.7745ZM35.221 37.02V40H34.311V34.52H35.221V35.41C35.531 34.8 36.121 34.42 36.991 34.42V35.36H36.751C35.881 35.36 35.221 35.75 35.221 37.02ZM40.3715 35.2C39.4815 35.2 38.7415 35.79 38.6415 36.86H42.1015C42.1115 35.79 41.3115 35.2 40.3715 35.2ZM42.9315 38.31C42.6515 39.31 41.7715 40.09 40.4115 40.09C38.8515 40.09 37.7015 38.99 37.7015 37.25C37.7015 35.52 38.8115 34.43 40.4115 34.43C42.0015 34.43 43.0415 35.55 43.0415 37.05C43.0415 37.25 43.0315 37.41 43.0115 37.6H38.6315C38.7015 38.71 39.4815 39.32 40.4115 39.32C41.2315 39.32 41.7515 38.9 41.9515 38.31H42.9315ZM47.1087 38.5V35.27H46.3987V34.52H47.1087V33.14H48.0187V34.52H49.4487V35.27H48.0187V38.5C48.0187 39.04 48.2187 39.23 48.7787 39.23H49.4487V40H48.6287C47.6587 40 47.1087 39.6 47.1087 38.5ZM50.5513 40V32.6H51.4613V35.31C51.8213 34.73 52.5013 34.42 53.2713 34.42C54.4913 34.42 55.4613 35.2 55.4613 36.77V40H54.5613V36.9C54.5613 35.78 53.9513 35.21 53.0313 35.21C52.1013 35.21 51.4613 35.79 51.4613 36.97V40H50.5513ZM59.2777 35.2C58.3877 35.2 57.6477 35.79 57.5477 36.86H61.0077C61.0177 35.79 60.2177 35.2 59.2777 35.2ZM61.8377 38.31C61.5577 39.31 60.6777 40.09 59.3177 40.09C57.7577 40.09 56.6077 38.99 56.6077 37.25C56.6077 35.52 57.7177 34.43 59.3177 34.43C60.9077 34.43 61.9477 35.55 61.9477 37.05C61.9477 37.25 61.9377 37.41 61.9177 37.6H57.5377C57.6077 38.71 58.3877 39.32 59.3177 39.32C60.1377 39.32 60.6577 38.9 60.8577 38.31H61.8377ZM65.4749 37.25C65.4749 35.53 66.5849 34.43 68.1449 34.43C69.5049 34.43 70.3949 35.13 70.6749 36.28H69.6949C69.5049 35.62 68.9549 35.2 68.1449 35.2C67.1449 35.2 66.4049 35.91 66.4049 37.25C66.4049 38.61 67.1449 39.32 68.1449 39.32C68.9549 39.32 69.4949 38.93 69.6949 38.24H70.6749C70.3949 39.33 69.5049 40.09 68.1449 40.09C66.5849 40.09 65.4749 38.99 65.4749 37.25ZM72.7991 37.02V40H71.8891V34.52H72.7991V35.41C73.1091 34.8 73.6991 34.42 74.5691 34.42V35.36H74.3291C73.4591 35.36 72.7991 35.75 72.7991 37.02ZM75.6196 40V34.52H76.5296V40H75.6196ZM76.0896 33.63C75.7396 33.63 75.4696 33.36 75.4696 33.01C75.4696 32.66 75.7396 32.39 76.0896 32.39C76.4196 32.39 76.6896 32.66 76.6896 33.01C76.6896 33.36 76.4196 33.63 76.0896 33.63ZM78.9905 35.54C79.3405 34.93 80.0705 34.43 81.0405 34.43C82.5205 34.43 83.6405 35.53 83.6405 37.24C83.6405 38.94 82.5105 40.09 81.0405 40.09C80.0405 40.09 79.3305 39.59 78.9905 38.99V40H78.0805V32.6H78.9905V35.54ZM82.7105 37.24C82.7105 35.95 81.8605 35.22 80.8505 35.22C79.8605 35.22 78.9905 35.98 78.9905 37.25C78.9905 38.54 79.8605 39.29 80.8505 39.29C81.8605 39.29 82.7105 38.53 82.7105 37.24ZM91.7044 34.52H90.7944C90.8144 33.95 90.4344 33.64 89.9444 33.64C89.4044 33.64 89.0544 33.98 89.0544 34.44C89.0544 34.85 89.2844 35.19 89.7744 35.71L91.8544 37.8C91.9144 37.71 91.9744 37.62 92.0344 37.52L92.7144 36.38H93.6944L92.8744 37.8C92.7444 38.03 92.6144 38.23 92.4744 38.43L94.0444 40H92.8544L91.9444 39.08C91.2744 39.78 90.5244 40.12 89.5444 40.12C88.0944 40.12 87.1044 39.29 87.1044 38C87.1044 37.04 87.6544 36.27 88.7444 35.84C88.3144 35.34 88.1444 34.95 88.1444 34.44C88.1444 33.55 88.8544 32.89 89.9844 32.89C91.0844 32.89 91.7544 33.59 91.7044 34.52ZM89.5444 39.34C90.2644 39.34 90.8244 39.06 91.3444 38.48L89.2944 36.42C88.4244 36.75 88.0144 37.27 88.0144 37.97C88.0144 38.75 88.6344 39.34 89.5444 39.34ZM97.223 37.25C97.223 35.53 98.333 34.43 99.893 34.43C101.253 34.43 102.143 35.13 102.423 36.28H101.443C101.253 35.62 100.703 35.2 99.893 35.2C98.893 35.2 98.153 35.91 98.153 37.25C98.153 38.61 98.893 39.32 99.893 39.32C100.703 39.32 101.243 38.93 101.443 38.24H102.423C102.143 39.33 101.253 40.09 99.893 40.09C98.333 40.09 97.223 38.99 97.223 37.25ZM103.297 37.24C103.297 35.53 104.427 34.43 105.897 34.43C106.917 34.43 107.617 34.95 107.937 35.52V34.52H108.857V40H107.937V38.98C107.607 39.57 106.897 40.09 105.887 40.09C104.427 40.09 103.297 38.94 103.297 37.24ZM107.937 37.25C107.937 35.98 107.077 35.22 106.077 35.22C105.077 35.22 104.227 35.95 104.227 37.24C104.227 38.53 105.077 39.29 106.077 39.29C107.077 39.29 107.937 38.54 107.937 37.25ZM114.335 38.51C114.335 39.41 113.545 40.09 112.335 40.09C111.055 40.09 110.155 39.39 110.095 38.39H111.035C111.085 38.92 111.555 39.32 112.325 39.32C113.045 39.32 113.445 38.96 113.445 38.51C113.445 37.29 110.205 38 110.205 35.96C110.205 35.12 110.995 34.43 112.215 34.43C113.425 34.43 114.225 35.08 114.285 36.15H113.375C113.335 35.6 112.915 35.2 112.185 35.2C111.515 35.2 111.115 35.52 111.115 35.96C111.115 37.26 114.295 36.55 114.335 38.51ZM115.62 40V32.6H116.53V35.31C116.89 34.73 117.57 34.42 118.34 34.42C119.56 34.42 120.53 35.2 120.53 36.77V40H119.63V36.9C119.63 35.78 119.02 35.21 118.1 35.21C117.17 35.21 116.53 35.79 116.53 36.97V40H115.62Z" fill="#1E1E1E"/>
<g clip-path="url(#clip0_717_393)">
<path d="M130 8.50722V14.2165L125.038 11.6452V11.0782L130 8.50722Z" fill="#E76430"/>
<path d="M124.045 21.8162C124.045 22.623 124.211 23.1647 124.542 23.4421C124.873 23.7194 125.483 23.8581 126.374 23.8581H130V28.5466H125.687C123.651 28.5466 122.022 28.0425 120.801 27.0341C119.579 26.026 118.968 24.4125 118.968 22.1943V3.21399H124.045V21.8162Z" fill="#6B146D"/>
<path d="M108.31 14.3675C108.31 14.8969 108.545 15.2876 109.016 15.5396C109.487 15.7917 110.078 15.9997 110.791 16.1637C111.503 16.3274 112.273 16.504 113.1 16.693C113.927 16.8821 114.697 17.1847 115.41 17.6005C116.122 18.0162 116.714 18.5962 117.185 19.3397C117.655 20.0834 117.891 21.0978 117.891 22.3833C117.891 23.4671 117.675 24.4249 117.242 25.2569C116.809 26.0887 116.243 26.7818 115.543 27.3365C114.843 27.8909 114.048 28.3069 113.158 28.5842C112.267 28.8616 111.351 29.0003 110.409 29.0003C109.493 29.0003 108.596 28.8616 107.718 28.5842C106.84 28.3069 106.051 27.8975 105.352 27.3555C104.652 26.8134 104.079 26.1267 103.634 25.2949C103.188 24.4631 102.94 23.4927 102.89 22.3836H107.547C107.597 23.039 107.922 23.5431 108.52 23.8961C109.118 24.2488 109.76 24.4254 110.447 24.4254C111.109 24.4254 111.688 24.2678 112.184 23.9527C112.68 23.6377 112.928 23.1147 112.928 22.3839C112.928 21.8292 112.693 21.4258 112.222 21.1741C111.752 20.922 111.154 20.714 110.428 20.55C109.703 20.386 108.927 20.2097 108.1 20.0207C107.273 19.8316 106.497 19.5293 105.771 19.1132C105.046 18.6972 104.448 18.1175 103.977 17.374C103.507 16.6306 103.271 15.6285 103.271 14.3681C103.271 13.3346 103.475 12.4399 103.882 11.6835C104.289 10.9274 104.824 10.291 105.485 9.77428C106.147 9.25756 106.904 8.87318 107.756 8.62115C108.609 8.36912 109.48 8.2431 110.371 8.2431C111.262 8.2431 112.14 8.36912 113.005 8.62115C113.87 8.87318 114.633 9.25756 115.295 9.77428C115.957 10.291 116.491 10.9274 116.899 11.6835C117.306 12.4396 117.509 13.3346 117.509 14.3681H112.852C112.802 13.7884 112.541 13.36 112.07 13.0826C111.599 12.8053 111.084 12.6669 110.524 12.6669C109.964 12.6669 109.455 12.8056 108.997 13.0826C108.539 13.36 108.31 13.7884 108.31 14.3681L108.31 14.3675Z" fill="#6B146D"/>
<path d="M97.1922 16.7117C96.9122 15.401 96.3841 14.4115 95.608 13.7438C94.8319 13.0757 93.9858 12.7417 93.0697 12.7417C92.128 12.7417 91.2755 13.0757 90.5122 13.7438C89.7489 14.4118 89.2144 15.4012 88.9088 16.7117H97.1922ZM102.46 20.2658H88.8325C89.0361 21.6773 89.5322 22.7234 90.3214 23.4041C91.1102 24.0845 92.0264 24.4249 93.0697 24.4249C94.0366 24.4249 94.8511 24.2042 95.5125 23.7631C96.1741 23.3221 96.6705 22.6227 97.0014 21.6646H102.46C102.231 22.8494 101.824 23.8955 101.238 24.8029C100.653 25.7103 99.9405 26.4728 99.1008 27.0905C98.2611 27.7082 97.3386 28.1743 96.3333 28.4893C95.328 28.8043 94.3039 28.962 93.2605 28.962C92.0644 28.962 90.8875 28.754 89.7297 28.338C88.5719 27.9222 87.5411 27.2919 86.6377 26.4474C85.7344 25.603 85.0091 24.5446 84.4619 23.2715C83.915 21.9986 83.6411 20.4925 83.6411 18.7533C83.6411 17.1148 83.9083 15.653 84.4427 14.3675C84.9772 13.082 85.6897 11.9982 86.5802 11.1158C87.4708 10.2337 88.4824 9.55936 89.615 9.09298C90.7475 8.62661 91.8988 8.39357 93.0694 8.39357C94.2655 8.39357 95.4233 8.62661 96.543 9.09298C97.6627 9.55936 98.6616 10.2335 99.5394 11.1158C100.417 11.998 101.124 13.082 101.658 14.3675C102.192 15.653 102.46 17.1151 102.46 18.7533V20.2658Z" fill="#6B146D"/>
<path d="M82.4107 2.2309V29H81.8001L66.9895 13.7628V28.5463H61.722V1.77718H62.3326L77.1431 17.0141V2.2309H82.4107Z" fill="#6B146D"/>
<path d="M54.5366 28.5463V8.69624H59.6133V28.5463H54.5366Z" fill="#6B146D"/>
<path d="M37.5028 18.6402C37.5028 19.6987 37.6492 20.6251 37.942 21.4192C38.2345 22.2133 38.6164 22.8747 39.087 23.4041C39.5578 23.9335 40.0923 24.3305 40.6903 24.5952C41.2884 24.8599 41.9053 24.9922 42.5417 24.9922C43.1526 24.9922 43.7567 24.8599 44.3548 24.5952C44.9528 24.3305 45.4873 23.9335 45.9581 23.4041C46.429 22.8747 46.8106 22.213 47.1034 21.4192C47.3959 20.6251 47.5423 19.6987 47.5423 18.6402C47.5423 17.5815 47.3959 16.6487 47.1034 15.8423C46.8106 15.0356 46.429 14.3675 45.9581 13.8384C45.4873 13.309 44.9528 12.9123 44.3548 12.6473C43.7567 12.3826 43.1523 12.2503 42.5417 12.2503C41.9056 12.2503 41.2884 12.3826 40.6903 12.6473C40.0923 12.912 39.5578 13.309 39.087 13.8384C38.6162 14.3678 38.2345 15.0359 37.942 15.8423C37.6492 16.6487 37.5028 17.5815 37.5028 18.6402ZM52.6187 1.52588e-05V28.5463H47.542V26.1643C46.804 27.1221 45.8878 27.8342 44.7937 28.3006C43.6995 28.7669 42.5414 29 41.3201 29C40.2259 29 39.1314 28.792 38.0373 28.3759C36.9431 27.9602 35.9698 27.3235 35.1173 26.4667C34.2648 25.6096 33.5714 24.5322 33.037 23.2341C32.5025 21.9359 32.2353 20.4047 32.2353 18.6402C32.2353 16.8757 32.5025 15.3382 33.037 14.0274C33.5714 12.7166 34.2648 11.6329 35.1173 10.7758C35.9698 9.9187 36.9431 9.28229 38.0373 8.86627C39.1314 8.45053 40.2384 8.24252 41.3581 8.24252C42.5542 8.24252 43.6995 8.48189 44.7937 8.96093C45.8878 9.43996 46.804 10.1457 47.542 11.0782V1.52588e-05L52.6187 1.52588e-05Z" fill="#6B146D"/>
<path d="M26.0041 28.5463V8.69624H31.0807V28.5463H26.0041Z" fill="#6B146D"/>
<path d="M12.4439 14.3298H24.8495V15.3886L12.4439 19.7744V14.3298Z" fill="#E76430"/>
<path d="M12.8639 23.9712C13.7292 23.9712 14.5434 23.8641 15.307 23.6498C16.0703 23.4354 16.7512 23.1204 17.3492 22.7047C17.9473 22.2887 18.4245 21.7656 18.7806 21.1355C19.1367 20.5052 19.3403 19.7617 19.3914 18.9046L24.8498 16.9008C24.8245 19.018 24.4937 20.8392 23.8573 22.3643C23.2209 23.8892 22.3559 25.1433 21.2617 26.1264C20.1675 27.1095 18.8762 27.8342 17.3873 28.3006C15.8986 28.7669 14.2892 29 12.5586 29C10.93 29 9.35864 28.7163 7.84447 28.1492C6.3303 27.5822 4.98779 26.7314 3.81723 25.597C2.64668 24.4629 1.71778 23.045 1.03084 21.3435C0.343905 19.642 0.000289917 17.6572 0.000289917 15.3886C0.000289917 13.2207 0.343905 11.2925 1.03084 9.60367C1.71778 7.91483 2.64029 6.49068 3.79835 5.33122C4.95613 4.17177 6.29225 3.28966 7.80642 2.68461C9.32059 2.07956 10.9173 1.77718 12.5967 1.77718C14.0473 1.77718 15.415 1.97887 16.7 2.38223C17.985 2.7856 19.1559 3.39668 20.212 4.21607C21.2681 5.03546 22.1906 6.05624 22.9792 7.27871C23.7681 8.50118 24.3914 9.93165 24.8495 11.5701H19.0475C18.5639 10.0577 17.7306 8.87951 16.5472 8.03509C15.3639 7.19067 14.0089 6.76861 12.482 6.76861C11.5658 6.76861 10.6942 6.93864 9.86724 7.279C9.04 7.61935 8.30223 8.14212 7.65335 8.84815C7.00446 9.55389 6.48918 10.4487 6.10751 11.5327C5.72585 12.6165 5.53502 13.902 5.53502 15.3894C5.53502 16.8513 5.73863 18.1244 6.14585 19.2082C6.55308 20.292 7.10002 21.1867 7.78725 21.8928C8.47419 22.5985 9.25698 23.1216 10.1348 23.4619C11.0128 23.8023 11.9225 23.9723 12.8639 23.9723V23.9712Z" fill="#6B146D"/>
<path d="M54.2122 0.91291H59.9761L57.3802 5.82809H56.8077L54.2122 0.91291Z" fill="#E76430"/>
<path d="M25.6605 0.91291H31.4244L28.8288 5.82809H28.256L25.6605 0.91291Z" fill="#E76430"/>
</g>
<defs>
<clipPath id="clip0_717_393">
<rect width="130" height="29" fill="white"/>
</clipPath>
</defs>
</svg>
